<?xml version="1.0" encoding="utf-8"?>
<!-- Generator: Adobe Illustrator 27.4.1, SVG Export Plug-In . SVG Version: 6.00 Build 0)  -->
<svg version="1.1" xmlns="http://www.w3.org/2000/svg" xmlns:xlink="http://www.w3.org/1999/xlink" x="0px" y="0px"
	 viewBox="0 0 250 250" style="enable-background:new 0 0 250 250;" xml:space="preserve">
<style type="text/css">
	.st0{fill:#FFFFFF;}
	.st1{fill:#F6992A;}
	.st2{fill:#4456A4;}
	.st3{fill:#F4F4F4;}
	.st4{fill:#7FBF6A;}
	.st5{fill:#FFFFFF;stroke:#454545;stroke-width:0.75;stroke-miterlimit:10;}
	.st6{display:none;}
	.st7{display:inline;fill:#4456A4;}
	.st8{display:inline;fill:#F6992A;}
	.st9{display:inline;fill:#7FBF6A;}
	.st10{display:inline;fill:#FFFFFF;}
	.st11{display:inline;fill:#FFFFFF;stroke:#454545;stroke-width:0.75;stroke-miterlimit:10;}
</style>
<g id="Layer_1">
	<g id="Calque_1">
	</g>
	<g id="Calque_2">
		<path class="st0" d="M125,81.3V125h0.1V83.3C125.1,82.6,125.1,81.9,125,81.3z"/>
		<path class="st0" d="M125.1,0L125.1,0L125,44.2c0.1-0.6,0.1-1.3,0.1-2.1V0z"/>
		<path class="st0" d="M203.2,113.4c2.8-2.8,6.5-5.1,6.5-12c0-7.7-7.8-17.5-21.1-17.5s-21.1,9.8-21.1,17.5c0,6.9,3.7,9.2,6.5,12
			c4.3,4.3,4,9.4-0.4,11.6h30.1C199.2,122.8,198.9,117.7,203.2,113.4z"/>
		<path class="st1" d="M125.1,126.1H168c2.3,0,4.1-0.4,5.5-1.1h-48.4V126.1z"/>
		<path class="st0" d="M250,126.1V125h-46.6c1.4,0.7,3.3,1.1,5.5,1.1H250z"/>
		<path class="st0" d="M173.2,125H125v1.1h42.7C169.9,126.1,171.8,125.7,173.2,125z"/>
		<path class="st0" d="M137.6,204.2c2.8,2.8,5.1,6.5,12,6.5c7.7,0,17.5-7.8,17.5-21.1s-9.8-21.1-17.5-21.1c-6.9,0-9.2,3.7-12,6.5
			c-5.3,5.3-11.7,3.6-12.6-3.9v37.1C126,200.6,132.4,198.9,137.6,204.2z"/>
		<path class="st0" d="M124.9,126.1V169c0,0.7,0.1,1.4,0.1,2.1v-44.9h-0.1V126.1z"/>
		<path class="st0" d="M124.9,250L124.9,250l0.1-41.9c-0.1,0.6-0.1,1.3-0.1,2.1V250z"/>
		<path class="st2" d="M46.4,125H0v1.1h40.8C43.1,126.1,44.9,125.7,46.4,125z"/>
		<path class="st0" d="M124.9,126.1V169c0,0.7,0.1,1.4,0.1,2.1v-46H76.5c1.4,0.7,3.3,1.1,5.5,1.1h42.9V126.1z"/>
		<path class="st1" d="M113.4,76.4c-0.4,0.3-0.7,0.6-1,0.9C112.7,77,113.1,76.7,113.4,76.4z"/>
		<path class="st1" d="M114.5,75.6c-0.2,0.2-0.5,0.3-0.7,0.5C114,76,114.2,75.8,114.5,75.6z"/>
		<path class="st1" d="M112.4,48.1c0.3,0.3,0.7,0.7,1,0.9C113.1,48.7,112.7,48.4,112.4,48.1z"/>
		<path class="st1" d="M115.5,75c-0.2,0.1-0.4,0.2-0.6,0.3C115.1,75.3,115.3,75.2,115.5,75z"/>
		<path class="st1" d="M114.9,50c0.2,0.1,0.4,0.2,0.6,0.3C115.3,50.3,115.1,50.2,114.9,50z"/>
		<path class="st1" d="M117.1,50.9c0.2,0,0.3,0.1,0.5,0.1C117.5,51,117.3,51,117.1,50.9z"/>
		<path class="st1" d="M113.8,49.3c0.2,0.2,0.5,0.3,0.7,0.5C114.2,49.6,114,49.5,113.8,49.3z"/>
		<path class="st1" d="M119.2,51.1c0.1,0,0.2,0,0.3,0C119.4,51.1,119.3,51.1,119.2,51.1z"/>
		<path class="st1" d="M116,50.6c0.2,0.1,0.4,0.1,0.5,0.2C116.4,50.7,116.2,50.7,116,50.6z"/>
		<path class="st1" d="M121.3,74.9c-0.1,0-0.2-0.1-0.2-0.1C121.2,74.9,121.2,74.9,121.3,74.9z"/>
		<path class="st1" d="M125.1,126.1h42.5c2.3,0,4.1-0.4,5.5-1.1H125L125.1,126.1L125.1,126.1z"/>
		<path class="st1" d="M125.1,83.3c0-0.4,0-0.9-0.1-1.3C125.1,82.5,125.1,82.9,125.1,83.3z"/>
		<path class="st1" d="M122,75.4C122,75.4,122,75.3,122,75.4C122,75.3,122,75.4,122,75.4z"/>
		<path class="st1" d="M76.4,113.4c2.8-2.8,6.5-5.1,6.5-12c0-7.7-7.8-17.5-21.1-17.5h-0.1c13.2,0.1,21,9.8,21,17.5
			c0,6.9-3.7,9.2-6.5,12c-4.3,4.3-4,9.4,0.4,11.6c1.4,0.7,3.3,1.1,5.5,1.1h0.3C73.1,126.1,70.6,119.1,76.4,113.4z"/>
		<path class="st1" d="M124.9,169c0,0.7,0.1,1.4,0.1,2.1v-44.9h-0.1V169z"/>
		<path class="st1" d="M120.2,50.9c0.1,0,0.2,0,0.2-0.1C120.4,50.9,120.3,50.9,120.2,50.9z"/>
		<path class="st1" d="M116.6,74.6c-0.2,0.1-0.4,0.1-0.6,0.2C116.2,74.8,116.4,74.7,116.6,74.6z"/>
		<path class="st1" d="M117.6,74.4c-0.2,0-0.4,0.1-0.5,0.1C117.3,74.4,117.5,74.4,117.6,74.4z"/>
		<path class="st1" d="M119.6,74.4c-0.1,0-0.3,0-0.4-0.1C119.3,74.3,119.5,74.3,119.6,74.4z"/>
		<path class="st1" d="M120.5,74.6c-0.1,0-0.2-0.1-0.3-0.1C120.3,74.5,120.4,74.5,120.5,74.6z"/>
		<path class="st1" d="M125,81.3L125,81.3L125,81.3L125,81.3z"/>
		<path class="st1" d="M137.6,204.2c-5.3-5.3-11.7-3.6-12.6,3.9c-0.1,0.6-0.1,1.3-0.1,2.1V250h0.1v-41.9
			C126,200.6,132.4,198.9,137.6,204.2z"/>
		<path class="st1" d="M203.2,113.4c2.8-2.8,6.5-5.1,6.5-12c0-7.7-7.8-17.5-21.1-17.5h-0.1c13.2,0.1,21,9.8,21,17.5
			c0,6.9-3.7,9.2-6.5,12c-4.3,4.3-4,9.4,0.4,11.6c1.4,0.7,3.3,1.1,5.5,1.1H250V125h-46.4C199.2,122.8,198.9,117.7,203.2,113.4z"/>
		<path class="st1" d="M118.6,51.1c-0.1,0-0.3,0-0.4,0C118.3,51.1,118.5,51.1,118.6,51.1z"/>
		<path class="st1" d="M118.2,74.3c0.2,0,0.3,0,0.5,0C118.5,74.3,118.3,74.3,118.2,74.3z"/>
		<path class="st1" d="M125.1,43.4c0-0.4,0.1-0.8,0.1-1.3C125.1,42.5,125.1,43,125.1,43.4z"/>
		<path class="st1" d="M121.1,50.6C121.1,50.6,121.2,50.6,121.1,50.6C121.2,50.6,121.2,50.6,121.1,50.6z"/>
		<path class="st2" d="M46.4,125c4.4-2.2,4.8-7.3,0.4-11.6c-2.8-2.8-6.5-5.1-6.5-12c0-7.7,7.8-17.5,21.1-17.5h0.1h0.1
			c13.3,0,21.1,9.8,21.1,17.5c0,6.9-3.7,9.2-6.5,12c-5.8,5.7-3.3,12.8,6,12.8h42.5h0.1h0.1V125V83.3c0-0.4,0-0.9-0.1-1.3
			c0-0.3,0-0.5-0.1-0.8c-0.4-2.8-1.5-4.7-3-5.9l-0.1-0.1c-0.2-0.1-0.4-0.3-0.6-0.4c-0.1,0-0.2-0.1-0.2-0.1c-0.2-0.1-0.4-0.2-0.6-0.2
			c-0.1,0-0.2-0.1-0.3-0.1c-0.2,0-0.4-0.1-0.6-0.1c-0.1,0-0.3,0-0.4-0.1c-0.2,0-0.4,0-0.5,0c-0.2,0-0.3,0-0.5,0s-0.3,0-0.5,0.1
			c-0.2,0-0.4,0.1-0.5,0.1c-0.2,0-0.3,0.1-0.5,0.1c-0.2,0.1-0.4,0.1-0.6,0.2s-0.3,0.1-0.5,0.2s-0.4,0.2-0.6,0.3
			c-0.1,0.1-0.3,0.2-0.4,0.2c-0.2,0.2-0.5,0.3-0.7,0.5c-0.1,0.1-0.2,0.2-0.4,0.3c-0.4,0.3-0.7,0.6-1,0.9c-2.8,2.8-5.1,6.5-12,6.5
			c-7.7,0-17.5-7.8-17.5-21.1c0-13.3,9.8-21.1,17.5-21.1c6.9,0,9.2,3.7,12,6.5c0.3,0.3,0.7,0.7,1,0.9c0.1,0.1,0.2,0.2,0.4,0.3
			c0.2,0.2,0.5,0.3,0.7,0.5c0.2,0.1,0.3,0.2,0.5,0.3c0.2,0.1,0.4,0.2,0.6,0.3c0.2,0.1,0.3,0.1,0.5,0.2c0.2,0.1,0.4,0.1,0.5,0.2
			c0.2,0.1,0.4,0.1,0.5,0.1c0.2,0,0.3,0.1,0.5,0.1s0.4,0.1,0.6,0.1c0.1,0,0.3,0,0.4,0c0.2,0,0.4,0,0.6,0c0.1,0,0.2,0,0.3,0
			c0.2,0,0.4-0.1,0.7-0.1c0.1,0,0.2,0,0.2-0.1c0.2-0.1,0.5-0.2,0.7-0.3c0,0,0.1,0,0.1-0.1c1.9-1,3.3-3.1,3.8-6.4
			c0-0.3,0.1-0.5,0.1-0.8c0-0.4,0.1-0.8,0.1-1.3V0H10C4.5,0,0,4.5,0,10v116.1h40.8C43.1,126.1,44.9,125.7,46.4,125z"/>
		<path class="st3" d="M250,126.1h-41.1c-2.3,0-4.1-0.4-5.5-1.1c-4.4-2.2-4.8-7.3-0.4-11.6c2.8-2.8,6.5-5.1,6.5-12
			c0-7.6-7.8-17.4-21-17.5c-13.2,0.1-21,9.8-21,17.5c0,6.9,3.7,9.2,6.5,12c4.3,4.3,4,9.4-0.4,11.6h-0.3c-1.4,0.7-3.3,1.1-5.5,1.1
			h-42.5H125V171c1,7.5,7.4,9.2,12.6,3.9c2.8-2.8,5.1-6.5,12-6.5c7.7,0,17.5,7.8,17.5,21.1s-9.8,21.1-17.5,21.1
			c-6.9,0-9.2-3.7-12-6.5c-5.3-5.3-11.7-3.6-12.6,3.9v42h50.5H201h39c5.5,0,10-4.5,10-10V126.1z"/>
		<path class="st4" d="M125,208.1c1-7.5,7.4-9.2,12.6-3.9c2.8,2.8,5.1,6.5,12,6.5c7.7,0,17.5-7.8,17.5-21.1s-9.8-21.1-17.5-21.1
			c-6.9,0-9.2,3.7-12,6.5c-5.3,5.3-11.7,3.6-12.6-3.9l0,0c-0.1-0.6-0.1-1.3-0.1-2.1v-42.8H82.3H82c-2.3,0-4.1-0.4-5.5-1.1
			c-4.4-2.2-4.8-7.3-0.4-11.6c2.8-2.8,6.5-5.1,6.5-12c0-7.6-7.8-17.4-21-17.5c-13.2,0.1-21,9.8-21,17.5c0,6.9,3.7,9.2,6.5,12
			c5.8,5.7,3.3,12.8-6,12.8h-0.3H0V176v27.5V240c0,5.5,4.5,10,10,10h38.7h25.5h50.7v-39.8C124.9,209.5,124.9,208.8,125,208.1z"/>
		<path class="st4" d="M40.3,101.3c0,6.9,3.7,9.2,6.5,12c4.3,4.3,4,9.4-0.4,11.6c-1.4,0.7-3.3,1.1-5.5,1.1h0.3c9.3,0,11.7-7,6-12.8
			c-2.8-2.8-6.5-5.1-6.5-12c0-7.6,7.8-17.4,21-17.5h-0.1C48.1,83.9,40.3,93.7,40.3,101.3z"/>
		<path class="st4" d="M137.6,174.9c-5.3,5.3-11.7,3.6-12.6-3.9l0,0C126,178.6,132.4,180.2,137.6,174.9z"/>
		<path class="st1" d="M125.1,0v42.1c0,0.4,0,0.9-0.1,1.3c-0.3,3.7-1.8,6.1-3.8,7.2c0,0-0.1,0-0.1,0.1c-0.2,0.1-0.5,0.2-0.7,0.3
			c-0.1,0-0.2,0.1-0.2,0.1c-0.2,0.1-0.4,0.1-0.7,0.1c-0.1,0-0.2,0-0.3,0c-0.2,0-0.4,0-0.6,0c-0.1,0-0.3,0-0.4,0
			c-0.2,0-0.4,0-0.6-0.1c-0.2,0-0.3-0.1-0.5-0.1s-0.4-0.1-0.5-0.1c-0.2-0.1-0.4-0.1-0.5-0.2c-0.2-0.1-0.3-0.1-0.5-0.2
			c-0.2-0.1-0.4-0.2-0.6-0.3s-0.3-0.2-0.5-0.3s-0.5-0.3-0.7-0.5c-0.1-0.1-0.2-0.2-0.4-0.3c-0.4-0.3-0.7-0.6-1-0.9
			c-2.8-2.8-5.1-6.5-12-6.5c-7.7,0-17.5,7.8-17.5,21.1s9.8,21.1,17.5,21.1c6.9,0,9.2-3.7,12-6.5c0.3-0.3,0.7-0.7,1-0.9
			c0.1-0.1,0.2-0.2,0.4-0.3c0.2-0.2,0.5-0.4,0.7-0.5c0.1-0.1,0.3-0.2,0.4-0.2c0.2-0.1,0.4-0.2,0.6-0.3c0.2-0.1,0.3-0.1,0.5-0.2
			s0.4-0.2,0.6-0.2c0.2-0.1,0.3-0.1,0.5-0.1s0.4-0.1,0.5-0.1c0.2,0,0.3,0,0.5-0.1c0.2,0,0.3,0,0.5,0s0.4,0,0.5,0s0.3,0,0.4,0.1
			c0.2,0,0.4,0.1,0.6,0.1c0.1,0,0.2,0.1,0.3,0.1c0.2,0.1,0.4,0.1,0.6,0.2c0.1,0,0.2,0.1,0.2,0.1c0.2,0.1,0.4,0.2,0.6,0.4l0.1,0.1
			c1.5,1.1,2.6,3.1,3,5.9l0,0l0,0c0,0.3,0.1,0.5,0.1,0.8c0,0.4,0.1,0.8,0.1,1.3V125h48.1c4.4-2.2,4.8-7.3,0.4-11.6
			c-2.8-2.8-6.5-5.1-6.5-12c0-7.7,7.8-17.5,21.1-17.5h0.1h0.1c13.3,0,21.1,9.8,21.1,17.5c0,6.9-3.7,9.2-6.5,12
			c-4.3,4.3-4,9.4,0.4,11.6H250V76.5V49V10c0-5.5-4.5-10-10-10H125.1z"/>
		<path class="st1" d="M121.9,75.3c-0.2-0.1-0.4-0.3-0.6-0.4C121.5,75.1,121.7,75.2,121.9,75.3z"/>
		<path class="st1" d="M121.1,74.8c-0.2-0.1-0.4-0.2-0.6-0.2C120.7,74.7,120.9,74.7,121.1,74.8z"/>
		<path class="st1" d="M119.6,51.1c0.2,0,0.4-0.1,0.7-0.1C120,51,119.8,51,119.6,51.1z"/>
		<path class="st1" d="M125.1,43.4c0,0.3,0,0.5-0.1,0.8c-0.4,3.2-1.9,5.4-3.8,6.4C123.3,49.5,124.8,47.1,125.1,43.4z"/>
		<path class="st1" d="M120.4,50.9c0.2-0.1,0.5-0.2,0.7-0.3C120.9,50.7,120.7,50.8,120.4,50.9z"/>
		<path class="st1" d="M114.5,49.8c0.2,0.1,0.3,0.2,0.5,0.3C114.8,50,114.6,49.9,114.5,49.8z"/>
		<path class="st1" d="M116.6,50.8c0.2,0.1,0.4,0.1,0.5,0.1C117,50.9,116.8,50.9,116.6,50.8z"/>
		<path class="st1" d="M113.4,49c0.1,0.1,0.2,0.2,0.4,0.3C113.7,49.2,113.5,49.1,113.4,49z"/>
		<path class="st1" d="M125.1,82.1c0-0.3,0-0.5-0.1-0.8C125,81.5,125.1,81.8,125.1,82.1z"/>
		<path class="st1" d="M115.5,50.4c0.2,0.1,0.3,0.1,0.5,0.2C115.9,50.5,115.7,50.5,115.5,50.4z"/>
		<path class="st1" d="M117.6,51c0.2,0,0.4,0.1,0.6,0.1C118,51.1,117.8,51.1,117.6,51z"/>
		<path class="st1" d="M122,75.4c1.5,1.1,2.6,3.1,3,5.9C124.6,78.5,123.5,76.5,122,75.4z"/>
		<path class="st1" d="M114.9,75.4c-0.1,0.1-0.3,0.2-0.4,0.2C114.6,75.6,114.8,75.5,114.9,75.4z"/>
		<path class="st1" d="M118.7,74.3c0.2,0,0.4,0,0.5,0C119,74.3,118.8,74.3,118.7,74.3z"/>
		<path class="st1" d="M113.8,76.2c-0.1,0.1-0.2,0.2-0.4,0.3C113.5,76.3,113.6,76.2,113.8,76.2z"/>
		<path class="st1" d="M120.2,74.5c-0.2,0-0.4-0.1-0.6-0.1C119.8,74.4,120,74.4,120.2,74.5z"/>
		<path class="st1" d="M116,74.9c-0.2,0.1-0.3,0.1-0.5,0.2C115.7,75,115.9,74.9,116,74.9z"/>
		<path class="st1" d="M118.2,74.3c-0.2,0-0.3,0-0.5,0.1C117.8,74.3,118,74.3,118.2,74.3z"/>
		<path class="st1" d="M119.2,51.1c-0.2,0-0.4,0-0.6,0C118.8,51.1,119,51.1,119.2,51.1z"/>
		<path class="st1" d="M117.1,74.5c-0.2,0-0.3,0.1-0.5,0.1C116.8,74.6,116.9,74.5,117.1,74.5z"/>
		<path class="st1" d="M167.1,101.3c0,6.9,3.7,9.2,6.5,12c4.3,4.3,4,9.4-0.4,11.6h0.3c4.4-2.2,4.8-7.3,0.4-11.6
			c-2.8-2.8-6.5-5.1-6.5-12c0-7.6,7.8-17.4,21-17.5h-0.1C175,83.9,167.1,93.7,167.1,101.3z"/>
		<g id="WolfiesPuzzleGenerator" transform="scale(3.779528749457873844999636220357925)">
			<g id="Puzzle">
			</g>
		</g>
		<path class="st5" d="M99.9,96.5c0,0,13.5-27,37.6-27s43.3,18.3,42.4,48.2c14.4,1.9,27.9,13.5,26,32.7s-13.5,26-21.2,27.9
			s-112.7,0-112.7,0s-26-1-27-28.9s20.2-34.7,20.2-34.7s2.9-16.4,13.5-21.2S99.9,96.5,99.9,96.5z"/>
	</g>
	<g id="Calque_3">
	</g>
	<g id="Calque_4">
	</g>
</g>
<g id="Layer_2" class="st6">
	<path class="st7" d="M-210.2,83.3c7.8,0,10.5-4.2,13.7-7.4c6.5-6.5,14.5-3.8,14.5,6.8v48.6h48.6c10.5,0,13.3-8,6.8-14.5
		c-3.2-3.2-7.4-5.8-7.4-13.7c0-8.7,8.9-19.8,24-19.8s24,11.1,24,19.8c0,7.8-4.2,10.5-7.4,13.7c-6.5,6.5-3.8,14.5,6.8,14.5H-38V82.7
		c0-10.5-8-13.3-14.5-6.8c-3.2,3.2-5.8,7.4-13.7,7.4c-8.7,0-19.8-8.9-19.8-24s11.1-24,19.8-24c7.8,0,10.5,4.2,13.7,7.4
		C-46,49.2-38,46.5-38,35.9v-48.6h-48.6c-10.5,0-13.3-8-6.8-14.5c3.2-3.2,7.4-5.8,7.4-13.7c0-8.7-8.9-19.8-24-19.8s-24,11.1-24,19.8
		c0,7.8,4.2,10.5,7.4,13.7c6.5,6.5,3.8,14.5-6.8,14.5H-182v48.6c0,10.5-8,13.3-14.5,6.8c-3.2-3.2-5.8-7.4-13.7-7.4
		c-8.7,0-19.8,8.9-19.8,24S-218.9,83.3-210.2,83.3z"/>
	<path class="st8" d="M-66.2,83.3c7.8,0,10.5-4.2,13.7-7.4C-46,69.4-38,72.1-38,82.7v48.6h48.6c10.5,0,13.3-8,6.8-14.5
		c-3.2-3.2-7.4-5.8-7.4-13.7c0-8.7,8.9-19.8,24-19.8s24,11.1,24,19.8c0,7.8-4.2,10.5-7.4,13.7c-6.5,6.5-3.8,14.5,6.8,14.5H106V82.7
		c0-10.5-8-13.3-14.5-6.8c-3.2,3.2-5.8,7.4-13.7,7.4c-8.7,0-19.8-8.9-19.8-24s11.1-24,19.8-24c7.8,0,10.5,4.2,13.7,7.4
		c6.5,6.5,14.5,3.8,14.5-6.8v-48.6H57.4c-10.5,0-13.3-8-6.8-14.5C53.8-30.4,58-33,58-40.9c0-8.7-8.9-19.8-24-19.8S10-49.6,10-40.9
		c0,7.8,4.2,10.5,7.4,13.7c6.5,6.5,3.8,14.5-6.8,14.5H-38v48.6c0,10.5-8,13.3-14.5,6.8c-3.2-3.2-5.8-7.4-13.7-7.4
		c-8.7,0-19.8,8.9-19.8,24S-74.9,83.3-66.2,83.3z"/>
	<path class="st9" d="M-210.2,227.3c7.8,0,10.5-4.2,13.7-7.4c6.5-6.5,14.5-3.8,14.5,6.8v48.6h48.6c10.5,0,13.3-8,6.8-14.5
		c-3.2-3.2-7.4-5.8-7.4-13.7c0-8.7,8.9-19.8,24-19.8s24,11.1,24,19.8c0,7.8-4.2,10.5-7.4,13.7c-6.5,6.5-3.8,14.5,6.8,14.5H-38v-48.6
		c0-10.5-8-13.3-14.5-6.8c-3.2,3.2-5.8,7.4-13.7,7.4c-8.7,0-19.8-8.9-19.8-24s11.1-24,19.8-24c7.8,0,10.5,4.2,13.7,7.4
		c6.5,6.5,14.5,3.8,14.5-6.8v-48.6h-48.6c-10.5,0-13.3-8-6.8-14.5c3.2-3.2,7.4-5.8,7.4-13.7c0-8.7-8.9-19.8-24-19.8
		s-24,11.1-24,19.8c0,7.8,4.2,10.5,7.4,13.7c6.5,6.5,3.8,14.5-6.8,14.5H-182v48.6c0,10.5-8,13.3-14.5,6.8c-3.2-3.2-5.8-7.4-13.7-7.4
		c-8.7,0-19.8,8.9-19.8,24C-230,218.4-218.9,227.3-210.2,227.3z"/>
	<path class="st10" d="M-66.2,227.3c7.8,0,10.5-4.2,13.7-7.4c6.5-6.5,14.5-3.8,14.5,6.8v48.6h48.6c10.5,0,13.3-8,6.8-14.5
		c-3.2-3.2-7.4-5.8-7.4-13.7c0-8.7,8.9-19.8,24-19.8s24,11.1,24,19.8c0,7.8-4.2,10.5-7.4,13.7c-6.5,6.5-3.8,14.5,6.8,14.5H106v-48.6
		c0-10.5-8-13.3-14.5-6.8c-3.2,3.2-5.8,7.4-13.7,7.4c-8.7,0-19.8-8.9-19.8-24s11.1-24,19.8-24c7.8,0,10.5,4.2,13.7,7.4
		c6.5,6.5,14.5,3.8,14.5-6.8v-48.6H57.4c-10.5,0-13.3-8-6.8-14.5c3.2-3.2,7.4-5.8,7.4-13.7c0-8.7-8.9-19.8-24-19.8s-24,11.1-24,19.8
		c0,7.8,4.2,10.5,7.4,13.7c6.5,6.5,3.8,14.5-6.8,14.5H-38v48.6c0,10.5-8,13.3-14.5,6.8c-3.2-3.2-5.8-7.4-13.7-7.4
		c-8.7,0-19.8,8.9-19.8,24C-86,218.4-74.9,227.3-66.2,227.3z"/>
	<path class="st11" d="M-64.3,98.3c0,0,11.1-22.2,30.9-22.2s35.6,15,34.8,39.6c11.9,1.6,23,11.1,21.4,26.9s-11.1,21.4-17.4,23
		s-92.7,0-92.7,0s-21.4-0.8-22.2-23.8s16.6-28.5,16.6-28.5s2.4-13.5,11.1-17.4S-64.3,98.3-64.3,98.3z"/>
</g>
</svg>
